<svg width="43" height="36" viewBox="0 0 43 36" fill="none" xmlns="http://www.w3.org/2000/svg">
<path d="M19.35 23.85L27.7171 18.6C28.2009 18.3 28.2009 17.7 27.7171 17.4L19.35 12.15C18.7588 11.775 17.9167 12.135 17.9167 12.75V23.25C17.9167 23.865 18.7588 24.225 19.35 23.85ZM21.5 3C11.61 3 3.58337 9.72 3.58337 18C3.58337 26.28 11.61 33 21.5 33C31.39 33 39.4167 26.28 39.4167 18C39.4167 9.72 31.39 3 21.5 3ZM21.5 30C13.5988 30 7.16671 24.615 7.16671 18C7.16671 11.385 13.5988 6 21.5 6C29.4013 6 35.8334 11.385 35.8334 18C35.8334 24.615 29.4013 30 21.5 30Z" fill="#45CAAC"/>
</svg>
